<?xml version="1.0" encoding="UTF-8"?>
<svg version="1.0" viewBox="0 0 1808 1328" xmlns="http://www.w3.org/2000/svg">
<defs>
<linearGradient id="a" x2="70%" y1="100%">
<stop stop-color="#D9711F" offset="0"/>
<stop stop-color="#E08A45" offset=".55"/>
<stop stop-color="#F2C9A8" offset="1"/>
</linearGradient>
</defs>
<g transform="translate(0 1328) scale(.1 -.1)" fill="url(#a)">
<path d="m8360 12400-75-80h-83-83l-398-400h-45c-29 0-50-6-58-16-7-8-41-44-74-80-58-60-64-64-107-64-30 0-51-6-59-16-7-8-41-44-74-80-58-60-64-64-107-64-30 0-51-6-59-16-7-8-59-62-115-120-99-102-103-104-147-104-29 0-50-6-58-16-7-8-41-44-74-80-58-60-64-64-107-64-26 0-51-6-57-12-5-7-19-25-31-40-17-24-28-28-69-28-33 0-54-5-62-16-17-20-222-225-242-242-23-19-23-263 0-286 8-9 19-16 24-16s16-7 24-16c13-12 16-40 16-144s3-132 16-144c8-9 19-16 24-16s16-7 24-16c14-13 16-48 16-224s2-211 16-224c8-9 19-16 24-16s16-7 24-16c13-12 16-40 16-144s3-132 16-144c8-9 19-16 24-16s16-7 24-16c13-13 16-44 16-185v-169l40-25c54-34 53-73-3-94-37-14-52-55-37-103 8-27 18-40 36-44 13-3 29-14 34-24 6-10 10-93 10-184 0-136 3-167 16-180 8-9 19-16 24-16s16-7 24-16c13-12 16-40 16-144s3-132 16-144c8-9 19-16 24-16s16-7 24-16c13-13 16-44 16-182 0-92 4-172 8-178s22-19 40-28c21-11 32-24 33-39 0-12 0-89-1-172 0-82 3-155 7-161 5-6 23-19 41-28l32-17v-172c0-94 4-177 8-183s22-19 40-28l32-17v-214-214l31-23c17-13 37-36 45-51s26-32 40-37c57-22 56-111-3-170-21-20-44-44-51-53-9-12-28-17-62-17-27 0-54-6-60-12-5-7-19-25-31-40l-20-28h-369-368l-64-80h-328-328l-64-80h-168-168l-64-80h-88-88l-64-80h-168-168l-32-40c-29-37-35-40-80-40-27 0-54-6-60-12-5-7-19-25-31-40l-20-28h-129-128l-64-80h-88-88l-64-80h-88-88l-32-40c-30-38-35-40-84-40-29 0-57-5-64-12-8-8-12-46-12-105 0-74 3-95 17-105 9-7 35-32 57-55l42-43h206 206l64 80h88 88l32 40c29 37 35 40 80 40 27 0 54 6 60 13 5 6 19 24 31 40 20 26 24 27 109 27h88l64 80h88 88l64 80h128 128l64 80h88 88l64 80h88 88l64 80h288 288l64 80h248 248l64 80h408 408l64 80h1608 1608l64-80h528 528l64-80h408 408l64-80h486 487l35-39 35-40 366-6c335-7 367-6 382 10 21 21 22 49 1 69-13 13-44 16-188 16-120 0-176 4-184 12-7 7-12 36-12 65 0 41-4 54-19 63-13 6-152 10-385 10h-365l-20 28c-12 15-26 33-31 40-6 6-33 12-60 12-58 0-80 18-80 65 0 49 16 84 43 94 14 5 27 17 31 26 3 9 6 126 6 260 0 208 2 246 16 259 8 9 19 16 24 16s16 7 24 16c14 13 16 55 16 304s2 291 16 304c8 9 19 16 24 16s16 7 24 16c13 13 16 44 16 184s3 171 16 184c8 9 19 16 24 16s16 7 24 16c14 13 16 59 16 344s2 331 16 344c8 9 19 16 24 16s16 7 24 16c14 13 16 59 16 344s2 331 16 344c8 9 19 16 24 16s16 7 24 16c24 23 23 267 0 286-21 17-65 61-82 82-8 10-28 16-59 16-43 0-49 4-107 64-33 36-67 72-74 80-8 11-29 16-62 16-46 0-80 17-80 40 0 24-34 40-84 40s-54 2-77 38l-24 37-97 6c-102 7-118 12-118 35 0 46-90 72-138 38-52-36-13-84 69-84 53 0 56-1 72-35 9-20 25-39 34-42 16-6 104-92 141-137 9-11 30-16 67-16 46 0 56-3 66-22 10-20 107-117 153-156 14-11 16-59 16-382 0-322-2-371-16-384-8-9-19-16-24-16s-16-7-24-16c-14-14-16-70-16-464s-2-450-16-464c-8-9-19-16-24-16s-16-7-24-16c-14-13-16-66-16-424 0-437 1-429-49-445-11-3-22-12-25-20-4-11-9-525-6-648 0-10 16-27 35-38 27-16 35-28 35-49 0-37-21-49-75-42-44 4-45 3-86-50-17-24-28-28-69-28s-52 4-69 28c-12 15-26 33-31 40-8 9-81 12-300 12h-290l-25 41c-32 50-60 50-94-3-22-35-28-38-71-38-85 0-80-35-80 563 0 595 5 557-80 557-65 0-80-16-80-85 0-51-2-55-32-71-18-9-36-22-40-28s-8-104-8-218c0-174-2-209-16-222-8-9-19-16-24-16s-16-7-24-16c-13-13-16-44-16-184s-3-171-16-184c-14-14-80-16-584-16h-568l-64 80h-648c-737 0-680-7-680 86 0 53-1 54-40 74l-40 20v614c0 545-2 616-16 630-8 9-19 16-24 16s-16 7-24 16c-14 14-16 70-16 464s-2 450-16 464c-8 9-19 16-24 16s-16 7-24 16c-14 14-16 70-16 464s-2 450-16 464c-8 9-19 16-24 16s-16 7-24 16c-14 14-16 80-16 584s-2 570-16 584c-8 9-19 16-24 16s-16 7-24 16c-14 14-16 91-16 704s-2 690-16 704c-8 9-19 16-24 16s-16 7-24 16c-13 13-16 44-16 184 0 207 4 200-118 200h-87l-75-80zm-378-817c16-14 18-33 18-144 0-103 3-131 16-143 8-9 19-16 24-16s16-7 24-16c14-13 16-59 16-344s2-331 16-344c8-9 19-16 24-16s16-7 24-16c13-13 16-44 16-184s3-171 16-184c8-9 19-16 24-16s16-7 24-16c14-13 16-48 16-224s2-211 16-224c8-9 19-16 24-16s16-7 24-16c14-13 16-48 16-224s2-211 16-224c8-9 19-16 24-16s16-7 24-16c14-13 16-48 16-224s2-211 16-224c8-9 19-16 24-16s16-7 24-16c14-13 16-51 16-264s2-251 16-264c8-9 19-16 24-16s16-7 24-16c14-13 16-48 16-224s2-211 16-224c8-9 19-16 24-16s16-7 24-16c14-13 16-51 16-264s2-251 16-264c8-9 19-16 24-16s16-7 24-16c13-12 16-40 16-144s3-132 16-144c8-9 19-16 24-16s16-7 24-16c14-13 16-47 16-220 0-114 4-213 10-224 5-10 20-20 33-24 47-12 59-95 20-138-15-17-50-18-464-18h-447l-64-80h-324c-217 0-332 4-346 11-19 10-20 17-13 94 8 101 3 120-35 134-18 6-34 21-40 36s-10 143-10 298c0 150-4 277-8 283s-22 19-39 28l-33 17v252c0 138-4 257-8 263s-22 19-39 28c-22 11-33 24-34 39 0 12 0 126 1 253 1 201-1 234-15 248-9 9-20 16-25 16s-16 7-24 16c-13 13-16 44-16 184s-3 171-16 184c-8 9-19 16-24 16s-16 7-24 16c-14 13-16 51-16 264s-2 251-16 264c-8 9-19 16-24 16s-16 7-24 16c-14 13-16 51-16 264s-2 251-16 264c-8 9-19 16-24 16s-16 7-24 16c-14 13-16 51-16 264s-2 251-16 264c-8 9-19 16-24 16s-16 7-24 16c-13 13-16 44-16 182 0 92-4 173-9 180-4 8-19 19-32 26-55 27-61 108-11 146 15 11 30 23 34 27 122 133 135 143 181 143 30 0 51 6 59 16 7 8 41 44 74 80 58 60 64 64 107 64 30 0 51 6 59 16 7 8 41 44 74 80l62 64h82 82l118 120c116 119 118 120 163 120 26 0 51 6 57 13 5 6 19 24 31 40 17 23 28 27 69 27 27 0 54 6 60 13 5 6 19 24 31 40 17 23 28 27 66 27 29 0 53-6 65-17zm1703 463c-14-19-37-37-50-40-43-11-45-78-2-92 12-4 38-23 58-43s43-42 52-49c12-9 17-28 17-67 0-50 2-56 30-70 16-8 38-28 47-43 24-38 32-42 81-42 42 0 46-3 185-144 78-80 148-152 155-160 9-11 30-16 65-16 29 0 58-5 65-12s12-38 12-70c0-55 2-58 33-74 17-9 35-22 39-28 12-18 10-1694-2-1717-9-15-22-19-65-19-38 0-58-5-67-16-17-21-61-65-82-82-15-12-16-109-16-1062 0-827 3-1051 13-1060 6-5 23-18 36-28l24-19-2-290c-2-257 0-292 14-307 21-21 49-21 70 0 14 15 16 50 14 307-2 287-2 290 20 308 11 10 27 19 34 22 9 3 13 94 17 383l5 379 32 14c56 25 56 77 0 102l-32 14-3 280c-1 154 0 290 3 302s14 25 25 28c49 16 50 20 50 281 0 150 4 253 10 265 9 15 22 19 65 19 31 0 59 5 65 13 5 6 19 24 31 40 20 26 24 27 106 27h86l77 80c74 77 78 80 123 80 25 0 51 6 57 13 5 6 19 24 31 40 17 23 28 27 69 27 27 0 54 6 60 13 5 6 19 24 31 40 20 26 24 27 110 27h89l25 40c25 40 46 48 75 30 11-7 15-27 15-72 0-60 1-63 30-77 17-8 33-19 37-25s8-86 8-178c0-138 3-169 16-182 8-9 19-16 24-16s16-7 24-16c14-13 16-48 16-224s2-211 16-224c8-9 19-16 24-16s16-7 24-16c13-12 16-40 16-144 0-151 4-160 80-160 65 0 80 16 80 85 0 51 2 55 33 71 17 9 35 22 39 28s8 374 8 818c0 720-2 808-16 822-12 13-40 16-144 16h-128l-32-40c-29-37-35-40-80-40-33 0-54-5-62-16-7-8-41-44-74-80l-62-64h-82-83l-77-80c-74-77-78-80-123-80-25 0-51-6-57-12-5-7-19-25-31-40-20-27-24-28-109-28-67 0-92 4-104 16-14 14-16 99-16 784 0 695-2 770-16 782-21 17-65 61-82 82-8 10-28 16-59 16-43 0-49 4-107 64-33 36-67 72-74 80-9 11-30 16-65 16-29 0-58 5-65 12s-12 37-12 68-5 61-12 68-36 12-64 12c-46 0-55 4-73 28-12 15-26 33-31 40-6 6-31 12-57 12-43 0-49 4-107 64-33 36-67 72-74 80-9 11-30 16-65 16-29 0-58 5-65 12s-12 36-12 64c0 67-16 84-80 84-44 0-52-4-75-34z"/>
</g>
<g transform="translate(0 1328) scale(.1 -.1)" fill="#161616">
<path d="m7514 4038c-22-24-48-49-57-56-16-12-17-79-17-822 0-722 2-810 16-824s70-16 464-16h448l32 40c29 37 35 40 80 40 33 0 54 5 62 16 38 46 217 223 236 233s22 20 22 66c0 51 16 85 40 85 5 0 16 7 24 16 12 12 16 37 16 104s4 92 16 104c8 9 19 16 24 16s16 7 24 16c23 23 23 265 0 288-8 9-19 16-24 16-24 0-40 34-40 85s-2 55-32 71c-44 22-48 30-48 91 0 44-4 54-22 64-19 10-198 187-236 233-8 11-29 16-62 16-45 0-51 3-80 40l-32 40h-88-88l-64 80h-286-287l-41-42zm486-238 32-40h125 124l164-162c90-90 170-169 179-176 14-11 16-46 16-262 0-217-2-251-16-262-9-7-72-68-139-135-121-121-124-123-169-123-25 0-50-6-56-12-5-7-19-25-31-40l-20-28h-209c-176 0-211 2-224 16-14 14-16 84-16 624s2 610 16 624c12 12 37 16 104 16h88l32-40zm1835 240c-14-22-29-40-34-40-23 0-41-34-41-78 0-56-5-64-47-86-31-16-33-20-33-71s-16-85-40-85c-5 0-16-7-24-16-12-12-16-37-16-102 0-48-4-92-8-98s-22-19-39-28c-31-15-33-20-33-69 0-61-4-69-47-91-31-15-33-20-33-69 0-61-4-69-47-91-31-15-33-20-33-69 0-61-4-69-47-91-31-15-33-20-33-69 0-61-4-69-47-91-31-16-33-20-33-71s-16-85-40-85c-5 0-16-7-25-16-12-13-15-34-14-99 3-84-7-115-37-115-18 0-44-28-44-48 1-44 13-47 152-43 73 1 141 7 150 12 14 7 18 22 18 64 0 51 16 85 40 85 5 0 16 7 24 16 12 12 16 37 16 104s4 92 16 104c13 14 62 16 382 16h366l42-42c22-24 48-49 57-56 12-9 17-28 17-67 0-51 2-55 33-71 43-22 47-30 47-91 0-40 4-55 18-62 9-5 77-11 150-12 110-3 134-1 142 11 21 33 10 60-35 81-28 13-30 19-33 72s-5 58-35 73c-43 22-47 30-47 91 0 49-2 54-32 69-44 22-48 30-48 91 0 49-2 54-32 69-18 9-36 22-40 28s-8 50-8 98c0 65-4 90-16 102-8 9-19 16-24 16-24 0-40 34-40 85s-2 55-32 71c-44 22-48 30-48 91 0 49-2 54-32 69-44 22-48 30-48 91 0 49-2 54-32 69-44 22-48 30-48 91 0 49-2 54-32 69-44 22-48 30-48 91 0 51-1 53-41 74l-42 21 6 50c8 60-5 88-38 88-18 0-32-11-50-40zm79-536c11-10 16-34 16-69 0-49 3-56 28-72 40-26 42-31 42-121 0-85 10-122 34-122 45 0 67-104 30-140-17-17-38-19-227-21-215-1-237 2-237 41 0 19 18 37 54 55 17 8 22 22 26 67 6 63 4 60 48 82 30 15 32 20 32 69 0 58 4 65 43 90 24 16 27 23 27 72 0 57 16 85 50 85 10 0 26-7 34-16zm1526 536c-29-37-35-40-80-40-33 0-54-5-62-16-38-45-297-303-316-313-18-10-22-20-22-66 0-51-16-85-40-85-5 0-16-7-24-16-14-13-16-59-16-344s2-331 16-344c8-9 19-16 24-16 24 0 40-34 40-85 0-46 4-56 22-66 19-10 278-268 316-313 8-11 29-16 62-16 45 0 51-3 80-40l32-40h128 128l32-40c29-37 36-40 80-40s51 3 80 40l32 40h128 128l64 80h86 85l76 79c42 43 86 84 99 90 19 10 22 20 22 66 0 38 5 58 16 67 9 7 38 33 64 58s55 51 64 58c24 19 24 422 0 446-13 14-59 16-344 16s-331-2-344-16c-23-23-23-265 0-288 13-13 44-16 183-16 157 0 169-1 187-21 12-13 19-35 19-61 0-32-6-45-30-64-17-14-33-28-37-32s-36-37-71-74c-61-65-67-68-110-68-26 0-51-6-57-12-5-7-19-25-31-40l-20-28h-249-249l-20 28c-12 15-26 33-31 40-6 6-31 12-56 12-45 0-48 2-169 123-67 67-130 128-139 135-11 9-16 29-16 67 0 51-2 55-32 71-18 9-36 22-40 28s-8 85-8 176 4 170 8 176 22 19 40 28c30 16 32 20 32 71 0 38 5 58 16 67 9 7 72 68 139 136 121 120 124 122 169 122 25 0 50 6 56 13 5 6 19 24 31 40l20 27h209 209l20-27c12-16 26-34 31-40 6-7 33-13 60-13 41 0 52-4 69-27 12-16 26-34 31-40 6-7 33-13 60-13s54-6 60-12c5-7 20-26 31-41 19-25 26-28 72-25s54 7 72 35c11 17 32 37 47 43 56 25 58 133 3 158-13 6-32 24-42 39-25 39-32 43-85 43-39 0-50 4-67 28-12 15-26 33-31 40-6 6-33 12-60 12-45 0-51 3-80 40l-32 40h-368-368l-32-40zm-7057-2917c-23-3-41-15-59-38-14-19-35-37-46-41-11-3-26-21-34-39-10-24-24-37-49-45-44-15-48-29-43-168l3-109 63-63 64-63 159-5c143-4 162-3 179 13 11 10 20 26 20 35 0 20 19 40 38 40 8 0 37 23 64 51 57 59 62 95 17 116-15 7-34 24-43 38-14 21-24 25-67 25-65 0-87-12-94-54-8-41 6-71 43-88 22-11 27-20 27-48v-35l-279 8-101 101 3 91c2 49 7 93 11 98 4 4 31 10 59 14 45 5 55 10 73 39 29 48 69 47 99-1l22-35h92c98 0 116 7 116 47 0 29-27 43-87 43-42 0-52 4-78 34s-37 36-85 39c-30 3-70 3-87 0zm640 0c-23-3-41-15-59-39-15-19-32-34-39-34-19 0-45-28-45-50 0-10 15-27 36-39 46-28 45-69-2-90l-32-14 1-99c0-90 2-100 21-109 12-6 37-29 56-50 34-39 36-40 120-46 95-6 120 5 120 52 0 32-27 45-89 45-55 0-81 22-81 70s26 70 81 70c66 0 89 13 89 50 0 36-23 50-83 50-49 0-70 17-81 64-5 19-2 36 9 52 13 20 24 24 66 24 62 0 89 13 89 44 0 50-52 64-177 49zm1362 0c-19-3-45-20-70-47-22-24-46-45-54-47-11-4-14-48-15-228-1-138 3-226 9-231 6-4 85-11 177-15 183-8 198-5 198 44 0 44-16 51-116 51-85 0-94 2-108 22-9 12-16 34-16 48 0 48 26 70 81 70 66 0 89 13 89 50s-23 50-89 50c-55 0-81 22-81 70s26 70 81 70c62 0 89 13 89 45 0 50-53 65-175 48zm2958 0c-23-3-41-15-59-38-14-19-35-37-46-41-11-3-26-21-34-39-7-19-23-37-35-40-27-9-129-110-129-128 0-17 32-47 49-47 15 0 31-42 31-81 0-24 13-44 61-92l61-61 162-4c143-4 164-2 179 12 21 22 22 50 1 70-12 13-41 16-145 16h-130l-104 104v88c0 49 5 92 11 98s34 13 62 17c45 5 55 10 73 39 29 47 69 47 98 0 18-28 29-34 68-40 50-7 83 11 83 44 0 18-30 50-46 50-5 0-22 16-39 34-26 30-37 36-85 39-30 3-70 3-87 0zm642 0c-18-2-42-17-60-38-24-28-40-36-80-42-44-6-57-14-108-64-57-58-58-59-64-128-8-91 0-116 37-129 19-7 34-23 44-46 10-24 23-37 41-42 16-4 37-23 52-47l25-40 163 5 163 4 63 64 64 63 3 109c5 139 1 153-43 168-26 8-39 21-50 46-8 19-19 34-26 34-6 0-28 18-48 39-32 35-43 40-91 44-30 3-68 3-85 0zm104-127c18-29 28-34 73-39 28-4 55-10 59-14 4-5 9-49 11-98l3-91-104-104h-135-136l-17 38c-12 24-26 38-41 40-28 4-46 45-38 89 3 22 22 50 55 83 44 44 58 52 102 57 45 5 54 10 71 40 28 46 68 46 97-1zm1751 127c-139-4-146-6-160-48-14-43 2-101 30-110 41-13 45-30 42-205-3-145-1-169 13-184 21-21 49-21 70 0 14 15 16 40 13 185l-3 167 50 47c28 26 62 53 78 61 20 11 27 22 27 44 0 27-25 53-47 48-4-1-55-4-113-5zm2223 0c-23-3-41-15-59-38-14-19-35-37-46-41-11-3-26-21-34-39-10-24-24-37-49-45-44-15-48-30-43-168l3-109 64-63 63-63 159-5c173-5 189-1 189 47 0 46-14 51-152 51h-129l-104 104 3 91c2 49 7 93 11 98 4 4 31 10 59 14 45 5 55 10 73 39 29 47 69 47 98 0 17-27 29-34 63-39 54-7 78 6 78 42 0 20-8 34-26 46-14 9-38 29-52 45-22 24-37 30-82 33-30 3-70 3-87 0zm828-24c-12-19-21-37-21-41s-27-10-60-14-65-13-72-22c-7-8-18-42-23-76-8-49-14-61-30-64-38-7-55-32-55-82 0-47 14-69 52-83 10-3 24-22 32-41 10-24 23-37 41-42 15-4 36-22 50-45l25-38h130 130l25 38c14 23 35 41 50 45 18 5 31 18 41 42 8 19 25 39 39 44 31 12 37 35 33 140-3 85-3 85-34 99-18 8-38 28-48 47-8 19-21 34-27 34s-28 18-48 40c-35 39-38 40-123 46l-87 7-20-34zm152-103c22-28 34-34 77-39 28-3 55-9 60-12 6-3 10-51 10-106v-100l-30-11c-20-7-35-22-45-44l-14-34h-140-141l-17 38c-12 24-26 38-41 40-14 2-27 14-33 30-14 37 1 104 26 117s104 92 128 128c16 24 23 27 76 27 55 0 60-2 84-34zm-11119 107c-15-15-16-35-10-190 8-186 9-180-44-185-23-3-25 1-31 52-8 74-23 100-57 100-62 0-102 12-102 31 0 25-103 129-129 129-11 0-24-8-29-17-4-10-9-111-11-224-2-180 0-209 14-223 21-21 49-20 71 1 15 15 16 33 11 143-3 70-2 131 1 137 4 6 21 14 39 17 30 7 32 5 41-26 11-39 88-125 117-130 11-2 27-17 35-33 22-45 105-125 129-125 11 0 24 8 29 18 5 9 10 128 11 263 2 217 0 248-14 263-21 21-49 20-71-1zm2813 5c-15-12-18-41-21-248-4-261 2-300 47-300 38 0 50 22 42 80-8 57 4 80 41 80 16 0 28-10 39-29 8-16 36-52 62-79 38-39 57-50 89-54 52-7 74 5 74 42 0 22-8 33-35 50-19 12-35 26-35 31 0 4-15 16-32 25-61 31-65 68-12 90 23 10 39 25 45 44 7 18 21 32 39 39 33 11 45 43 37 96-4 23-23 51-60 89l-55 56h-124c-84 0-130-4-141-12zm282-152c7-8 11-27 9-43-3-28-4-28-92-37-99-10-119-4-124 38-6 47 11 56 108 56 64 0 91-4 99-14zm4181 125c-17-22-39-43-49-46-25-8-45-58-37-91 8-29 99-125 131-138 11-5 56-11 100-15l80-6v-65-65l-58-3c-51-3-60 0-81 23-27 29-109 58-138 49-27-8-34-51-13-74 10-11 23-20 29-20s25-16 41-35c30-36 30-36 120-38l89-2 24 43c14 25 31 42 41 42 30 0 51 33 51 82 0 47-21 78-53 78-9 0-24 15-33 33-22 42-30 47-82 47-55 0-82 15-82 44 0 34 18 44 85 48 54 3 61 6 73 31 15 31 8 79-15 102-10 11-38 15-103 15h-88l-32-39zm985 31c-6-4-18-20-28-35s-29-32-43-37c-13-5-26-15-28-22-3-7-7-106-9-221-6-221-3-237 43-237 33 0 50 28 50 84 0 28 5 57 12 64s38 12 69 12c54 0 58 1 68 30 5 17 23 38 40 47 16 10 36 32 45 50 10 21 23 33 35 33 31 0 51 28 51 71 0 34-7 46-64 104l-64 65h-83c-46 0-89-4-94-8zm195-161c17-33 12-60-12-65-77-16-97-16-112-1-41 41-7 85 64 85 39 0 52-4 60-19zm265 153c-14-15-16-42-13-219l3-202 128-128h118 119l43 45c24 25 51 51 60 58 14 10 17 31 17 100 0 48 3 123 6 167 6 68 4 84-10 98-22 21-50 22-71 1-14-14-16-37-13-144l3-126-52-52c-49-49-55-52-103-52s-54 3-103 52l-52 52 4 166c2 145 0 169-14 184-21 21-49 21-70 0zm798-19c-24-30-36-36-80-42-73-8-84-19-92-88-5-49-10-62-30-71-31-16-41-32-41-72 0-37 13-67 44-98 12-12 29-33 39-48 10-14 26-26 37-26s27-16 42-42l23-43 132-3c139-3 163 4 163 48 0 43-24 50-166 50-99 0-136 3-139 13-2 6-6 33-10 59-5 40-11 50-41 67-28 17-34 26-34 55 0 30 4 37 27 42 15 4 42 22 59 41l31 33h121c132 0 145 5 157 58 6 31-9 82-28 94-7 4-51 8-99 8h-86l-29-35zm959 18c-4-10-9-119-10-243-2-249 5-292 47-298 48-7 51 12 51 279 0 212-2 250-16 263-21 21-61 20-72-1zm-6146-72c-9-10-16-24-16-33 0-17 31-48 47-48 6 0 22-15 37-34 14-19 34-37 44-41 34-10 41-45 31-164-10-125-4-151 36-151 18 0 32 11 49 39 14 22 34 42 46 46 26 8 34 43 26 117-6 64 11 118 39 118 24 0 55 50 55 91 0 75-58 91-99 27-22-35-28-38-70-38-41 0-50 4-81 39-28 32-44 40-81 45-37 4-50 2-63-13zm-5036-1c-12-7-16-48-21-222-3-117-2-221 3-230 16-33 55-22 83 22 14 22 29 40 34 40s17 7 25 16c13 13 16 44 16 184 0 195-2 200-78 200-26 0-54-5-62-10zm2160 0c-18-11-28-118-29-307-1-107 2-135 15-147 20-21 48-20 70 1 15 15 16 33 11 149-6 136-2 154 35 154 9 0 25-11 35-25s41-50 68-79c43-46 57-54 99-61 40-5 57-15 97-55 27-27 49-53 49-58 0-14 35-42 53-42 9 0 19 6 24 13 11 18 3 439-9 455-6 6-32 12-58 12-74 0-91-32-76-137 11-73 2-93-39-93-24 0-37 7-49 24-9 14-56 66-105 115-85 87-91 91-133 91-23 0-50-5-58-10zm633-2c-13-19-9-446 5-460 16-16 60-1 68 24 3 12 20 34 36 49l30 27v132 132l-31 29c-17 15-31 32-31 38 0 31-59 53-77 29zm1199-1c-7-8-14-91-18-203-6-160-4-195 9-226 12-30 22-38 41-38 15 0 30 8 36 19 6 12 10 101 10 221s-4 209-10 221c-12 22-52 25-68 6zm405-5c-12-13-17-37-17-75v-56l-39-11c-44-12-51-23-51-87 0-41-5-50-40-83-34-31-40-43-40-78 0-70 54-97 87-44 9 15 33 41 52 58 36 32 36 32 41 130l5 99h65 65l5-99c5-98 5-98 41-130 19-17 43-43 52-58 20-32 48-36 72-11 13 12 16 28 12 62-4 37-12 51-41 76-32 27-36 35-36 77 0 65-7 76-51 88l-39 11v58c0 72-17 91-82 91-31 0-50-6-61-18zm2865 1c-5-10-10-111-11-224-2-179 0-209 14-223 21-21 49-20 71 1 15 15 16 33 12 143-3 69-3 131-1 138 9 23 61 14 80-15 10-15 38-48 63-74 39-40 52-48 98-54 57-8 77-30 65-74-15-57 36-103 75-68 16 14 18 40 19 226 2 177 0 213-13 226-21 21-47 19-69-5-15-17-17-31-11-98 8-95 3-112-35-112-20 0-34 8-46 27-10 15-38 48-63 74-37 38-53 48-92 53-39 6-53 14-74 42-29 38-68 46-82 17zm4893 4c-15-11-17-23-12-63 3-27 1-102-4-167-10-131-4-157 36-157 45 0 55 23 55 124 0 112 7 122 78 112 32-4 52-13 64-28 9-13 23-29 30-36 164-159 206-201 221-224 18-29 59-38 73-17 3 6 8 107 10 224 4 185 2 215-12 229-20 21-48 20-69-1-15-14-16-30-10-108 5-76 4-93-9-104-23-20-49-9-74 30-22 33-29 37-81 43-53 6-59 9-74 42-9 19-27 38-39 43-13 5-33 23-46 40-20 27-28 31-70 31-27 0-56-6-67-13zm-3063-365c5-76 23-98 86-105 49-6 82 11 82 41 0 16-98 112-115 112-5 0-21 3-34 7-23 6-24 5-19-55z"/>
</g>
</svg>
